<svg width="121" height="120" viewBox="0 0 121 120" fill="none" xmlns="http://www.w3.org/2000/svg">
<path d="M60.322 0C60.298 0 60.274 0 60.25 0C27.142 0 0.298064 26.808 0.250064 59.928C0.202064 93.06 27.034 119.952 60.178 120C60.202 120 60.226 120 60.25 120C93.346 120 120.202 93.192 120.25 60.072C120.298 26.94 93.466 0.048 60.322 0ZM60.25 117.6H60.178C28.414 117.564 2.61406 91.692 2.65006 59.928C2.68606 28.212 28.534 2.4 60.25 2.4H60.322C92.086 2.436 117.886 28.308 117.85 60.072C117.814 91.788 91.966 117.6 60.25 117.6ZM97.45 84V43.104H99.85V28.704H20.65V43.104H23.05V84H17.05V86.4H30.25V92.304H25.45V94.704H66.25V92.304H61.45V86.4H74.65V92.304H71.05V94.704H92.65V92.304H89.05V86.4H103.45V84H97.45ZM23.05 31.104H97.45V40.704H23.05V31.104ZM59.05 92.304H32.65V73.104H59.05V92.304ZM42.25 67.104V70.704H35.05V67.104C35.05 65.124 36.67 63.504 38.65 63.504C40.63 63.504 42.25 65.124 42.25 67.104ZM35.05 58.704C35.05 56.724 36.67 55.104 38.65 55.104C40.63 55.104 42.25 56.724 42.25 58.704C42.25 60.684 40.63 62.304 38.65 62.304C36.67 62.304 35.05 60.696 35.05 58.704ZM56.65 67.104V70.704H49.45V67.104C49.45 65.124 51.07 63.504 53.05 63.504C55.03 63.504 56.65 65.124 56.65 67.104ZM49.45 58.704C49.45 56.724 51.07 55.104 53.05 55.104C55.03 55.104 56.65 56.724 56.65 58.704C56.65 60.684 55.03 62.304 53.05 62.304C51.07 62.304 49.45 60.696 49.45 58.704ZM86.65 92.304H77.05V59.904H86.65V92.304ZM86.65 58.704H77.05V56.304H86.65V58.704ZM95.05 84H89.05V53.904H74.65V84H61.45V70.704H57.85V67.104C57.85 65.28 56.818 63.72 55.33 62.904C56.83 62.088 57.85 60.528 57.85 58.704C57.85 56.052 55.702 53.904 53.05 53.904C50.398 53.904 48.25 56.052 48.25 58.704C48.25 60.528 49.282 62.088 50.77 62.904C49.27 63.72 48.25 65.28 48.25 67.104V70.704H43.45V67.104C43.45 65.28 42.418 63.72 40.93 62.904C42.43 62.088 43.45 60.528 43.45 58.704C43.45 56.052 41.302 53.904 38.65 53.904C35.998 53.904 33.85 56.052 33.85 58.704C33.85 60.528 34.882 62.088 36.37 62.904C34.87 63.72 33.85 65.28 33.85 67.104V70.704H30.25V84H25.45V43.104H95.05V84Z" fill="white"/>
</svg>
