<svg width="444" height="48" viewBox="0 0 444 48" fill="none" xmlns="http://www.w3.org/2000/svg">
<path d="M20.5781 13.512C20.4821 14.592 20.4101 15.636 20.3621 16.644C20.3381 17.652 20.3261 18.432 20.3261 18.984C20.3261 19.512 20.3381 20.016 20.3621 20.496C20.3861 20.976 20.4101 21.384 20.4341 21.72H19.6061C19.2941 19.848 18.8621 18.384 18.3101 17.328C17.7581 16.248 17.0741 15.48 16.2581 15.024C15.4661 14.568 14.5181 14.34 13.4141 14.34H12.2261C11.5301 14.34 11.0021 14.4 10.6421 14.52C10.2821 14.64 10.0421 14.88 9.92215 15.24C9.80215 15.6 9.74215 16.152 9.74215 16.896V34.968C9.74215 35.904 9.83815 36.6 10.0301 37.056C10.2221 37.512 10.5941 37.812 11.1461 37.956C11.6981 38.1 12.5141 38.184 13.5941 38.208V39C12.8501 38.976 11.8901 38.952 10.7141 38.928C9.53815 38.904 8.30215 38.892 7.00615 38.892C5.97415 38.892 4.96615 38.904 3.98215 38.928C2.99815 38.952 2.11015 38.976 1.31815 39V38.28C2.08615 38.232 2.66215 38.136 3.04615 37.992C3.43015 37.848 3.68215 37.56 3.80215 37.128C3.94615 36.696 4.01815 36.048 4.01815 35.184V17.328C4.01815 16.44 3.94615 15.792 3.80215 15.384C3.68215 14.952 3.41815 14.664 3.01015 14.52C2.62615 14.352 2.06215 14.256 1.31815 14.232V13.512C2.30215 13.536 3.34615 13.56 4.45015 13.584C5.55415 13.584 6.64615 13.596 7.72615 13.62C8.80615 13.62 9.81415 13.62 10.7501 13.62C11.6861 13.62 12.4541 13.62 13.0541 13.62C14.1581 13.62 15.4061 13.62 16.7981 13.62C18.2141 13.596 19.4741 13.56 20.5781 13.512ZM15.2141 25.968C15.2141 25.968 15.2141 26.088 15.2141 26.328C15.2141 26.568 15.2141 26.688 15.2141 26.688H8.66215C8.66215 26.688 8.66215 26.568 8.66215 26.328C8.66215 26.088 8.66215 25.968 8.66215 25.968H15.2141ZM16.1141 21.216C16.0181 22.584 15.9701 23.628 15.9701 24.348C15.9941 25.068 16.0061 25.728 16.0061 26.328C16.0061 26.928 16.0181 27.588 16.0421 28.308C16.0661 29.028 16.1261 30.072 16.2221 31.44H15.3941C15.2501 30.6 15.0221 29.82 14.7101 29.1C14.3981 28.38 13.9421 27.804 13.3421 27.372C12.7421 26.916 11.9621 26.688 11.0021 26.688V25.968C11.7221 25.968 12.3221 25.824 12.8021 25.536C13.3061 25.224 13.7261 24.828 14.0621 24.348C14.3981 23.844 14.6621 23.316 14.8541 22.764C15.0461 22.212 15.1901 21.696 15.2861 21.216H16.1141ZM30.6368 19.884C32.3888 19.884 33.9248 20.208 35.2448 20.856C36.5648 21.504 37.5968 22.548 38.3408 23.988C39.0848 25.428 39.4568 27.336 39.4568 29.712C39.4568 32.088 39.0848 33.996 38.3408 35.436C37.5968 36.852 36.5648 37.884 35.2448 38.532C33.9248 39.18 32.3888 39.504 30.6368 39.504C28.9328 39.504 27.4088 39.18 26.0648 38.532C24.7448 37.884 23.7008 36.852 22.9328 35.436C22.1888 33.996 21.8168 32.088 21.8168 29.712C21.8168 27.336 22.1888 25.428 22.9328 23.988C23.7008 22.548 24.7448 21.504 26.0648 20.856C27.4088 20.208 28.9328 19.884 30.6368 19.884ZM30.6368 20.604C29.6768 20.604 28.8728 21.324 28.2248 22.764C27.5768 24.18 27.2528 26.496 27.2528 29.712C27.2528 32.928 27.5768 35.244 28.2248 36.66C28.8728 38.076 29.6768 38.784 30.6368 38.784C31.6208 38.784 32.4248 38.076 33.0488 36.66C33.6968 35.244 34.0208 32.928 34.0208 29.712C34.0208 26.496 33.6968 24.18 33.0488 22.764C32.4248 21.324 31.6208 20.604 30.6368 20.604ZM50.9922 19.884C52.7442 19.884 54.2802 20.208 55.6002 20.856C56.9202 21.504 57.9522 22.548 58.6962 23.988C59.4402 25.428 59.8122 27.336 59.8122 29.712C59.8122 32.088 59.4402 33.996 58.6962 35.436C57.9522 36.852 56.9202 37.884 55.6002 38.532C54.2802 39.18 52.7442 39.504 50.9922 39.504C49.2882 39.504 47.7642 39.18 46.4202 38.532C45.1002 37.884 44.0562 36.852 43.2882 35.436C42.5442 33.996 42.1722 32.088 42.1722 29.712C42.1722 27.336 42.5442 25.428 43.2882 23.988C44.0562 22.548 45.1002 21.504 46.4202 20.856C47.7642 20.208 49.2882 19.884 50.9922 19.884ZM50.9922 20.604C50.0322 20.604 49.2282 21.324 48.5802 22.764C47.9322 24.18 47.6082 26.496 47.6082 29.712C47.6082 32.928 47.9322 35.244 48.5802 36.66C49.2282 38.076 50.0322 38.784 50.9922 38.784C51.9762 38.784 52.7802 38.076 53.4042 36.66C54.0522 35.244 54.3762 32.928 54.3762 29.712C54.3762 26.496 54.0522 24.18 53.4042 22.764C52.7802 21.324 51.9762 20.604 50.9922 20.604ZM79.7717 10.812V35.04C79.7717 36.12 79.9397 36.924 80.2757 37.452C80.6117 37.956 81.2117 38.208 82.0757 38.208V38.964C81.3317 38.892 80.5877 38.856 79.8437 38.856C78.8357 38.856 77.8877 38.892 76.9997 38.964C76.1357 39.036 75.3317 39.168 74.5877 39.36V15.132C74.5877 14.052 74.4197 13.26 74.0837 12.756C73.7717 12.228 73.1717 11.964 72.2837 11.964V11.208C73.0517 11.28 73.7957 11.316 74.5157 11.316C75.4997 11.316 76.4357 11.28 77.3237 11.208C78.2117 11.112 79.0277 10.98 79.7717 10.812ZM70.5917 19.884C71.6477 19.884 72.5717 20.064 73.3637 20.424C74.1797 20.76 74.8157 21.336 75.2717 22.152L74.8397 22.548C74.5277 21.972 74.1077 21.564 73.5797 21.324C73.0757 21.06 72.5357 20.928 71.9597 20.928C70.7357 20.928 69.7637 21.648 69.0437 23.088C68.3237 24.504 67.9757 26.7 67.9997 29.676C67.9997 31.716 68.1317 33.348 68.3957 34.572C68.6837 35.772 69.0797 36.636 69.5837 37.164C70.1117 37.692 70.7117 37.956 71.3837 37.956C72.1997 37.956 72.9317 37.632 73.5797 36.984C74.2277 36.336 74.5757 35.46 74.6237 34.356L74.8037 35.616C74.4437 36.888 73.8557 37.86 73.0397 38.532C72.2477 39.18 71.2037 39.504 69.9077 39.504C68.4917 39.504 67.2197 39.156 66.0917 38.46C64.9877 37.764 64.1237 36.696 63.4997 35.256C62.8757 33.792 62.5637 31.908 62.5637 29.604C62.5637 27.42 62.9117 25.62 63.6077 24.204C64.3037 22.764 65.2517 21.684 66.4517 20.964C67.6757 20.244 69.0557 19.884 70.5917 19.884ZM102.994 13.44C103.93 13.44 104.686 13.512 105.262 13.656C105.838 13.776 106.33 13.956 106.738 14.196C107.122 14.364 107.47 14.58 107.782 14.844C108.118 15.108 108.394 15.432 108.61 15.816C108.826 16.2 108.934 16.632 108.934 17.112C108.934 17.832 108.658 18.408 108.106 18.84C107.554 19.272 106.906 19.488 106.162 19.488C105.442 19.488 104.818 19.308 104.29 18.948C103.786 18.588 103.534 18.024 103.534 17.256C103.534 16.656 103.75 16.116 104.182 15.636C104.614 15.132 105.166 14.82 105.838 14.7C105.67 14.508 105.358 14.352 104.902 14.232C104.47 14.112 103.99 14.052 103.462 14.052C102.214 14.052 101.146 14.448 100.258 15.24C99.3937 16.008 98.9617 17.184 98.9617 18.768C98.9617 19.32 99.0577 19.908 99.2497 20.532C99.4417 21.156 99.8137 21.792 100.366 22.44C100.774 22.344 101.146 22.272 101.482 22.224C101.842 22.176 102.142 22.152 102.382 22.152C102.814 22.152 103.138 22.248 103.354 22.44C103.594 22.608 103.714 22.836 103.714 23.124C103.714 23.34 103.618 23.52 103.426 23.664C103.234 23.808 102.994 23.88 102.706 23.88C102.298 23.88 101.878 23.772 101.446 23.556C101.014 23.316 100.666 23.112 100.402 22.944C99.2737 23.52 98.3497 24.264 97.6297 25.176C96.9337 26.064 96.5857 27.264 96.5857 28.776C96.5857 30.36 97.0177 31.668 97.8817 32.7C98.7457 33.708 99.9577 34.476 101.518 35.004C103.102 35.508 104.962 35.76 107.098 35.76C108.298 35.76 109.486 35.628 110.662 35.364C111.838 35.1 112.894 34.704 113.83 34.176C114.79 33.648 115.558 33 116.134 32.232C116.71 31.44 116.998 30.528 116.998 29.496C116.998 29.112 116.938 28.632 116.818 28.056C116.722 27.456 116.47 26.868 116.062 26.292C115.654 25.692 114.982 25.2 114.046 24.816L114.298 24.492C115.594 24.9 116.578 25.668 117.25 26.796C117.922 27.924 118.258 29.22 118.258 30.684C118.258 32.364 117.742 33.876 116.71 35.22C115.678 36.54 114.226 37.584 112.354 38.352C110.506 39.12 108.334 39.504 105.838 39.504C103.846 39.504 102.034 39.3 100.402 38.892C98.7937 38.484 97.4017 37.896 96.2257 37.128C95.0737 36.336 94.1737 35.388 93.5257 34.284C92.9017 33.18 92.5897 31.932 92.5897 30.54C92.5897 29.196 92.8657 28.056 93.4177 27.12C93.9937 26.16 94.6897 25.38 95.5057 24.78C96.3217 24.156 97.1377 23.676 97.9537 23.34C98.7697 23.004 99.4177 22.776 99.8977 22.656C99.1537 22.344 98.4697 21.984 97.8457 21.576C97.2457 21.144 96.7537 20.64 96.3697 20.064C96.0097 19.488 95.8297 18.84 95.8297 18.12C95.8297 17.352 96.0337 16.68 96.4417 16.104C96.8497 15.504 97.3897 15.012 98.0617 14.628C98.7577 14.244 99.5257 13.956 100.366 13.764C101.23 13.548 102.106 13.44 102.994 13.44ZM117.142 13.008C118.846 13.008 120.226 13.452 121.282 14.34C122.338 15.228 122.866 16.476 122.866 18.084C122.866 19.308 122.566 20.34 121.966 21.18C121.39 22.02 120.55 22.704 119.446 23.232C118.366 23.76 117.07 24.18 115.558 24.492C115.222 24.612 114.802 24.756 114.298 24.924C113.794 25.068 113.278 25.212 112.75 25.356C112.222 25.5 111.706 25.644 111.202 25.788C110.722 25.932 110.302 26.052 109.942 26.148C108.07 26.556 106.63 27.024 105.622 27.552C104.614 28.056 104.11 28.752 104.11 29.64C104.11 30.24 104.302 30.756 104.686 31.188C105.094 31.62 105.598 31.956 106.198 32.196C106.798 32.436 107.398 32.556 107.998 32.556C108.166 32.556 108.346 32.544 108.538 32.52C108.73 32.472 108.91 32.424 109.078 32.376C109.246 32.304 109.366 32.244 109.438 32.196C108.838 32.004 108.382 31.704 108.07 31.296C107.782 30.864 107.638 30.372 107.638 29.82C107.638 29.052 107.914 28.464 108.466 28.056C109.018 27.648 109.702 27.444 110.518 27.444C111.382 27.444 112.054 27.672 112.534 28.128C113.038 28.584 113.29 29.172 113.29 29.892C113.29 30.636 113.062 31.26 112.606 31.764C112.15 32.244 111.538 32.604 110.77 32.844C110.002 33.06 109.138 33.168 108.178 33.168C107.242 33.168 106.354 33 105.514 32.664C104.698 32.328 104.038 31.824 103.534 31.152C103.054 30.456 102.814 29.592 102.814 28.56C102.814 27.288 103.138 26.232 103.786 25.392C104.434 24.528 105.358 23.82 106.558 23.268C107.782 22.692 109.222 22.248 110.878 21.936C111.382 21.816 111.934 21.684 112.534 21.54C113.158 21.372 113.794 21.204 114.442 21.036C115.09 20.868 115.69 20.688 116.242 20.496C117.97 20.064 119.302 19.584 120.238 19.056C121.198 18.528 121.678 17.82 121.678 16.932C121.678 16.284 121.474 15.72 121.066 15.24C120.682 14.736 120.178 14.352 119.554 14.088C118.93 13.8 118.282 13.656 117.61 13.656C117.394 13.656 117.19 13.668 116.998 13.692C116.83 13.716 116.686 13.764 116.566 13.836C117.166 14.052 117.61 14.376 117.898 14.808C118.186 15.24 118.33 15.672 118.33 16.104C118.33 16.848 118.054 17.424 117.502 17.832C116.95 18.216 116.266 18.408 115.45 18.408C114.634 18.408 113.962 18.204 113.434 17.796C112.906 17.364 112.642 16.776 112.642 16.032C112.642 15.384 112.822 14.844 113.182 14.412C113.566 13.956 114.094 13.608 114.766 13.368C115.438 13.128 116.23 13.008 117.142 13.008ZM133.084 13.512C133.708 13.536 134.524 13.56 135.532 13.584C136.54 13.608 137.548 13.62 138.556 13.62C139.708 13.62 140.824 13.608 141.904 13.584C142.984 13.56 143.752 13.548 144.208 13.548C147.184 13.548 149.404 14.076 150.868 15.132C152.356 16.188 153.1 17.544 153.1 19.2C153.1 20.04 152.848 20.892 152.344 21.756C151.84 22.62 151.06 23.388 150.004 24.06C148.948 24.732 147.58 25.224 145.9 25.536V25.608C148.156 25.776 149.944 26.184 151.264 26.832C152.584 27.48 153.532 28.26 154.108 29.172C154.684 30.084 154.972 31.032 154.972 32.016C154.972 33.528 154.576 34.8 153.784 35.832C152.992 36.864 151.852 37.656 150.364 38.208C148.876 38.736 147.1 39 145.036 39C144.46 39 143.632 38.988 142.552 38.964C141.472 38.916 140.164 38.892 138.628 38.892C137.572 38.892 136.54 38.904 135.532 38.928C134.524 38.928 133.708 38.952 133.084 39V38.28C133.852 38.232 134.428 38.136 134.812 37.992C135.196 37.848 135.448 37.56 135.568 37.128C135.712 36.696 135.784 36.048 135.784 35.184V17.328C135.784 16.44 135.712 15.792 135.568 15.384C135.448 14.952 135.184 14.664 134.776 14.52C134.392 14.352 133.828 14.256 133.084 14.232V13.512ZM143.74 14.232C142.804 14.232 142.192 14.436 141.904 14.844C141.64 15.252 141.508 16.08 141.508 17.328V35.184C141.508 36.024 141.568 36.66 141.688 37.092C141.832 37.524 142.072 37.812 142.408 37.956C142.768 38.1 143.296 38.172 143.992 38.172C145.72 38.172 146.98 37.632 147.772 36.552C148.588 35.448 148.996 33.888 148.996 31.872C148.996 30.024 148.528 28.596 147.592 27.588C146.68 26.58 145.156 26.076 143.02 26.076H139.96C139.96 26.076 139.96 25.98 139.96 25.788C139.96 25.572 139.96 25.464 139.96 25.464H143.056C144.184 25.464 145.048 25.2 145.648 24.672C146.248 24.12 146.668 23.4 146.908 22.512C147.148 21.6 147.268 20.628 147.268 19.596C147.268 17.82 146.992 16.488 146.44 15.6C145.888 14.688 144.988 14.232 143.74 14.232ZM166.199 19.884C168.311 19.884 169.967 20.508 171.167 21.756C172.367 23.004 172.967 25.044 172.967 27.876H161.123L161.051 27.192H168.431C168.455 26.016 168.383 24.936 168.215 23.952C168.047 22.944 167.783 22.14 167.423 21.54C167.063 20.94 166.583 20.64 165.983 20.64C165.143 20.64 164.423 21.168 163.823 22.224C163.247 23.28 162.899 25.032 162.779 27.48L162.887 27.696C162.863 27.984 162.839 28.284 162.815 28.596C162.815 28.908 162.815 29.232 162.815 29.568C162.815 31.224 163.043 32.568 163.499 33.6C163.979 34.632 164.579 35.388 165.299 35.868C166.019 36.324 166.751 36.552 167.495 36.552C167.999 36.552 168.515 36.48 169.043 36.336C169.595 36.168 170.147 35.88 170.699 35.472C171.251 35.04 171.767 34.44 172.247 33.672L172.895 33.888C172.607 34.8 172.151 35.688 171.527 36.552C170.903 37.416 170.111 38.124 169.151 38.676C168.191 39.228 167.039 39.504 165.695 39.504C164.063 39.504 162.623 39.156 161.375 38.46C160.127 37.764 159.143 36.708 158.423 35.292C157.727 33.876 157.379 32.076 157.379 29.892C157.379 27.66 157.751 25.8 158.495 24.312C159.263 22.824 160.307 21.72 161.627 21C162.971 20.256 164.495 19.884 166.199 19.884ZM192.088 20.388V21.108C191.632 21.228 191.2 21.516 190.792 21.972C190.384 22.404 189.988 23.148 189.604 24.204L184.348 39.072C183.964 39.048 183.568 39.036 183.16 39.036C182.776 39.036 182.392 39.048 182.008 39.072L175.6 23.16C175.216 22.224 174.832 21.66 174.448 21.468C174.088 21.252 173.776 21.144 173.512 21.144V20.388C174.28 20.436 175.072 20.484 175.888 20.532C176.728 20.556 177.64 20.568 178.624 20.568C179.368 20.568 180.148 20.556 180.964 20.532C181.804 20.484 182.584 20.436 183.304 20.388V21.144C182.8 21.144 182.344 21.168 181.936 21.216C181.552 21.264 181.288 21.42 181.144 21.684C181 21.948 181.024 22.416 181.216 23.088L185.428 34.248L185.068 34.752L187.912 26.868C188.368 25.572 188.56 24.516 188.488 23.7C188.416 22.86 188.152 22.236 187.696 21.828C187.24 21.396 186.628 21.156 185.86 21.108V20.388C186.22 20.412 186.604 20.436 187.012 20.46C187.444 20.46 187.852 20.472 188.236 20.496C188.644 20.496 189.004 20.496 189.316 20.496C189.796 20.496 190.3 20.484 190.828 20.46C191.356 20.436 191.776 20.412 192.088 20.388ZM201.742 19.884C203.854 19.884 205.51 20.508 206.71 21.756C207.91 23.004 208.51 25.044 208.51 27.876H196.666L196.594 27.192H203.974C203.998 26.016 203.926 24.936 203.758 23.952C203.59 22.944 203.326 22.14 202.966 21.54C202.606 20.94 202.126 20.64 201.526 20.64C200.686 20.64 199.966 21.168 199.366 22.224C198.79 23.28 198.442 25.032 198.322 27.48L198.43 27.696C198.406 27.984 198.382 28.284 198.358 28.596C198.358 28.908 198.358 29.232 198.358 29.568C198.358 31.224 198.586 32.568 199.042 33.6C199.522 34.632 200.122 35.388 200.842 35.868C201.562 36.324 202.294 36.552 203.038 36.552C203.542 36.552 204.058 36.48 204.586 36.336C205.138 36.168 205.69 35.88 206.242 35.472C206.794 35.04 207.31 34.44 207.79 33.672L208.438 33.888C208.15 34.8 207.694 35.688 207.07 36.552C206.446 37.416 205.654 38.124 204.694 38.676C203.734 39.228 202.582 39.504 201.238 39.504C199.606 39.504 198.166 39.156 196.918 38.46C195.67 37.764 194.686 36.708 193.966 35.292C193.27 33.876 192.922 32.076 192.922 29.892C192.922 27.66 193.294 25.8 194.038 24.312C194.806 22.824 195.85 21.72 197.17 21C198.514 20.256 200.038 19.884 201.742 19.884ZM222.768 19.884C223.536 19.884 224.16 20.052 224.64 20.388C225.12 20.7 225.468 21.108 225.684 21.612C225.924 22.116 226.044 22.644 226.044 23.196C226.044 24.084 225.78 24.816 225.252 25.392C224.748 25.944 224.076 26.22 223.236 26.22C222.396 26.22 221.736 26.016 221.256 25.608C220.8 25.176 220.572 24.612 220.572 23.916C220.572 23.244 220.716 22.692 221.004 22.26C221.316 21.804 221.7 21.42 222.156 21.108C221.82 21.012 221.484 21.024 221.148 21.144C220.692 21.216 220.26 21.408 219.852 21.72C219.444 22.008 219.096 22.38 218.808 22.836C218.52 23.268 218.292 23.748 218.124 24.276C217.956 24.78 217.872 25.272 217.872 25.752V35.292C217.872 36.444 218.148 37.224 218.7 37.632C219.276 38.04 220.128 38.244 221.256 38.244V39C220.704 38.976 219.9 38.952 218.844 38.928C217.788 38.88 216.684 38.856 215.532 38.856C214.572 38.856 213.6 38.88 212.616 38.928C211.632 38.952 210.888 38.976 210.384 39V38.244C211.224 38.244 211.812 38.064 212.148 37.704C212.508 37.344 212.688 36.66 212.688 35.652V24.312C212.688 23.232 212.52 22.44 212.184 21.936C211.872 21.408 211.272 21.144 210.384 21.144V20.388C211.152 20.46 211.896 20.496 212.616 20.496C213.624 20.496 214.56 20.46 215.424 20.388C216.312 20.292 217.128 20.16 217.872 19.992V23.34C218.16 22.692 218.544 22.104 219.024 21.576C219.504 21.048 220.056 20.64 220.68 20.352C221.304 20.04 222 19.884 222.768 19.884ZM232.157 39.252C231.077 39.252 230.177 39.048 229.457 38.64C228.737 38.232 228.209 37.692 227.873 37.02C227.537 36.324 227.369 35.568 227.369 34.752C227.369 33.72 227.597 32.88 228.053 32.232C228.533 31.584 229.145 31.056 229.889 30.648C230.633 30.24 231.413 29.904 232.229 29.64C233.069 29.376 233.861 29.124 234.605 28.884C235.373 28.62 235.985 28.32 236.441 27.984C236.921 27.624 237.161 27.168 237.161 26.616V23.808C237.161 23.184 237.053 22.632 236.837 22.152C236.645 21.648 236.333 21.264 235.901 21C235.493 20.736 234.953 20.604 234.281 20.604C233.801 20.604 233.321 20.676 232.841 20.82C232.361 20.94 231.965 21.156 231.653 21.468C232.325 21.708 232.841 22.08 233.201 22.584C233.585 23.064 233.777 23.616 233.777 24.24C233.777 25.056 233.489 25.704 232.913 26.184C232.361 26.664 231.701 26.904 230.933 26.904C230.069 26.904 229.409 26.64 228.953 26.112C228.521 25.56 228.305 24.9 228.305 24.132C228.305 23.436 228.473 22.86 228.809 22.404C229.169 21.948 229.661 21.516 230.285 21.108C230.957 20.724 231.761 20.424 232.697 20.208C233.657 19.992 234.689 19.884 235.793 19.884C236.897 19.884 237.893 20.004 238.781 20.244C239.669 20.46 240.413 20.868 241.013 21.468C241.565 22.02 241.925 22.704 242.093 23.52C242.261 24.312 242.345 25.32 242.345 26.544V36.336C242.345 36.936 242.405 37.356 242.525 37.596C242.645 37.812 242.849 37.92 243.137 37.92C243.353 37.92 243.557 37.86 243.749 37.74C243.965 37.62 244.193 37.476 244.433 37.308L244.793 37.92C244.289 38.352 243.701 38.688 243.029 38.928C242.381 39.144 241.649 39.252 240.833 39.252C239.945 39.252 239.237 39.132 238.709 38.892C238.181 38.628 237.797 38.28 237.557 37.848C237.341 37.416 237.233 36.912 237.233 36.336C236.657 37.248 235.961 37.968 235.145 38.496C234.329 39 233.333 39.252 232.157 39.252ZM234.713 36.948C235.193 36.948 235.625 36.84 236.009 36.624C236.417 36.384 236.801 36 237.161 35.472V28.092C236.945 28.452 236.645 28.776 236.261 29.064C235.877 29.352 235.469 29.652 235.037 29.964C234.605 30.252 234.185 30.576 233.777 30.936C233.393 31.296 233.081 31.74 232.841 32.268C232.601 32.796 232.481 33.432 232.481 34.176C232.481 35.112 232.685 35.808 233.093 36.264C233.501 36.72 234.041 36.948 234.713 36.948ZM252.805 45.768C251.317 45.768 249.985 45.636 248.809 45.372C247.657 45.132 246.745 44.748 246.073 44.22C245.425 43.716 245.101 43.092 245.101 42.348C245.101 41.604 245.437 40.932 246.109 40.332C246.781 39.756 247.777 39.3 249.097 38.964L249.421 39.54C248.965 39.9 248.629 40.284 248.413 40.692C248.221 41.124 248.125 41.568 248.125 42.024C248.125 43.032 248.581 43.8 249.493 44.328C250.429 44.88 251.689 45.156 253.273 45.156C254.353 45.156 255.313 45.012 256.153 44.724C257.017 44.436 257.689 44.004 258.169 43.428C258.673 42.852 258.925 42.144 258.925 41.304C258.925 40.584 258.661 39.972 258.133 39.468C257.605 38.988 256.549 38.748 254.965 38.748H252.733C251.749 38.748 250.885 38.64 250.141 38.424C249.421 38.208 248.857 37.872 248.449 37.416C248.041 36.936 247.837 36.336 247.837 35.616C247.837 34.608 248.233 33.72 249.025 32.952C249.817 32.184 250.993 31.464 252.553 30.792L252.913 31.08C252.457 31.368 252.025 31.68 251.617 32.016C251.233 32.328 251.041 32.736 251.041 33.24C251.041 34.008 251.521 34.392 252.481 34.392H256.405C257.725 34.392 258.901 34.548 259.933 34.86C260.989 35.172 261.817 35.688 262.417 36.408C263.041 37.104 263.353 38.016 263.353 39.144C263.353 40.32 262.969 41.412 262.201 42.42C261.457 43.428 260.305 44.232 258.745 44.832C257.185 45.456 255.205 45.768 252.805 45.768ZM253.165 31.332C251.797 31.332 250.573 31.128 249.493 30.72C248.413 30.312 247.561 29.688 246.937 28.848C246.313 28.008 246.001 26.928 246.001 25.608C246.001 24.288 246.313 23.208 246.937 22.368C247.561 21.504 248.413 20.88 249.493 20.496C250.573 20.088 251.797 19.884 253.165 19.884C254.533 19.884 255.757 20.088 256.837 20.496C257.917 20.88 258.769 21.504 259.393 22.368C260.017 23.208 260.329 24.288 260.329 25.608C260.329 26.928 260.017 28.008 259.393 28.848C258.769 29.688 257.917 30.312 256.837 30.72C255.757 31.128 254.533 31.332 253.165 31.332ZM253.165 30.684C253.813 30.684 254.317 30.324 254.677 29.604C255.037 28.86 255.217 27.528 255.217 25.608C255.217 23.688 255.037 22.368 254.677 21.648C254.317 20.904 253.813 20.532 253.165 20.532C252.541 20.532 252.037 20.904 251.653 21.648C251.293 22.368 251.113 23.688 251.113 25.608C251.113 27.528 251.293 28.86 251.653 29.604C252.037 30.324 252.541 30.684 253.165 30.684ZM258.781 22.98L258.061 22.728C258.421 21.792 258.997 21.012 259.789 20.388C260.605 19.764 261.481 19.452 262.417 19.452C263.185 19.452 263.761 19.668 264.145 20.1C264.553 20.508 264.757 21.048 264.757 21.72C264.757 22.44 264.565 22.98 264.181 23.34C263.797 23.676 263.365 23.844 262.885 23.844C262.477 23.844 262.093 23.7 261.733 23.412C261.397 23.124 261.205 22.692 261.157 22.116C261.109 21.516 261.313 20.748 261.769 19.812L262.021 20.028C261.109 20.364 260.425 20.76 259.969 21.216C259.513 21.648 259.117 22.236 258.781 22.98ZM274.445 19.884C276.557 19.884 278.213 20.508 279.413 21.756C280.613 23.004 281.213 25.044 281.213 27.876H269.369L269.297 27.192H276.677C276.701 26.016 276.629 24.936 276.461 23.952C276.293 22.944 276.029 22.14 275.669 21.54C275.309 20.94 274.829 20.64 274.229 20.64C273.389 20.64 272.669 21.168 272.069 22.224C271.493 23.28 271.145 25.032 271.025 27.48L271.133 27.696C271.109 27.984 271.085 28.284 271.061 28.596C271.061 28.908 271.061 29.232 271.061 29.568C271.061 31.224 271.289 32.568 271.745 33.6C272.225 34.632 272.825 35.388 273.545 35.868C274.265 36.324 274.997 36.552 275.741 36.552C276.245 36.552 276.761 36.48 277.289 36.336C277.841 36.168 278.393 35.88 278.945 35.472C279.497 35.04 280.013 34.44 280.493 33.672L281.141 33.888C280.853 34.8 280.397 35.688 279.773 36.552C279.149 37.416 278.357 38.124 277.397 38.676C276.437 39.228 275.285 39.504 273.941 39.504C272.309 39.504 270.869 39.156 269.621 38.46C268.373 37.764 267.389 36.708 266.669 35.292C265.973 33.876 265.625 32.076 265.625 29.892C265.625 27.66 265.997 25.8 266.741 24.312C267.509 22.824 268.553 21.72 269.873 21C271.217 20.256 272.741 19.884 274.445 19.884ZM301.06 13.044C302.476 13.044 303.568 13.2 304.336 13.512C305.104 13.8 305.764 14.112 306.316 14.448C306.604 14.616 306.832 14.748 307 14.844C307.192 14.916 307.372 14.952 307.54 14.952C307.78 14.952 307.948 14.82 308.044 14.556C308.164 14.292 308.26 13.896 308.332 13.368H309.16C309.136 13.824 309.1 14.376 309.052 15.024C309.028 15.648 309.004 16.476 308.98 17.508C308.98 18.54 308.98 19.896 308.98 21.576H308.152C308.056 20.328 307.768 19.116 307.288 17.94C306.808 16.764 306.124 15.804 305.236 15.06C304.372 14.292 303.304 13.908 302.032 13.908C300.88 13.908 299.932 14.232 299.188 14.88C298.444 15.528 298.072 16.428 298.072 17.58C298.072 18.54 298.312 19.368 298.792 20.064C299.272 20.736 299.968 21.396 300.88 22.044C301.816 22.692 302.944 23.472 304.264 24.384C305.416 25.128 306.448 25.872 307.36 26.616C308.272 27.36 309.004 28.2 309.556 29.136C310.108 30.072 310.384 31.188 310.384 32.484C310.384 34.068 309.964 35.376 309.124 36.408C308.308 37.44 307.228 38.22 305.884 38.748C304.54 39.252 303.064 39.504 301.456 39.504C299.968 39.504 298.78 39.36 297.892 39.072C297.004 38.784 296.26 38.484 295.66 38.172C295.132 37.836 294.724 37.668 294.436 37.668C294.196 37.668 294.016 37.8 293.896 38.064C293.8 38.328 293.716 38.724 293.644 39.252H292.816C292.864 38.676 292.888 38.004 292.888 37.236C292.912 36.468 292.924 35.472 292.924 34.248C292.948 33 292.96 31.428 292.96 29.532H293.788C293.884 31.116 294.148 32.604 294.58 33.996C295.036 35.364 295.72 36.468 296.632 37.308C297.568 38.148 298.804 38.568 300.34 38.568C301.18 38.568 301.924 38.424 302.572 38.136C303.244 37.824 303.784 37.368 304.192 36.768C304.6 36.168 304.804 35.424 304.804 34.536C304.804 33.528 304.564 32.652 304.084 31.908C303.628 31.164 302.992 30.468 302.176 29.82C301.384 29.172 300.46 28.512 299.404 27.84C298.276 27.096 297.22 26.352 296.236 25.608C295.252 24.864 294.46 24.012 293.86 23.052C293.284 22.092 292.996 20.952 292.996 19.632C292.996 18.12 293.368 16.884 294.112 15.924C294.88 14.94 295.876 14.22 297.1 13.764C298.348 13.284 299.668 13.044 301.06 13.044ZM320.068 19.992V41.952C320.068 43.08 320.356 43.824 320.932 44.184C321.508 44.568 322.3 44.76 323.308 44.76V45.516C322.684 45.492 321.82 45.456 320.716 45.408C319.636 45.384 318.484 45.372 317.26 45.372C316.372 45.372 315.496 45.384 314.632 45.408C313.792 45.456 313.156 45.492 312.724 45.516V44.76C313.516 44.76 314.068 44.592 314.38 44.256C314.716 43.92 314.884 43.272 314.884 42.312V24.312C314.884 23.232 314.716 22.44 314.38 21.936C314.044 21.408 313.444 21.144 312.58 21.144V20.388C313.348 20.46 314.092 20.496 314.812 20.496C315.796 20.496 316.732 20.46 317.62 20.388C318.508 20.292 319.324 20.16 320.068 19.992ZM325.648 19.884C326.872 19.884 327.964 20.22 328.924 20.892C329.884 21.54 330.652 22.536 331.228 23.88C331.804 25.2 332.092 26.856 332.092 28.848C332.092 30.6 331.888 32.136 331.48 33.456C331.096 34.776 330.532 35.892 329.788 36.804C329.068 37.692 328.192 38.364 327.16 38.82C326.152 39.276 325.012 39.504 323.74 39.504C322.804 39.504 321.952 39.336 321.184 39C320.416 38.688 319.828 38.232 319.42 37.632L319.78 37.164C320.02 37.596 320.356 37.932 320.788 38.172C321.244 38.412 321.76 38.532 322.336 38.532C323.416 38.532 324.268 38.172 324.892 37.452C325.516 36.708 325.96 35.676 326.224 34.356C326.512 33.012 326.656 31.416 326.656 29.568C326.656 27.504 326.524 25.884 326.26 24.708C325.996 23.532 325.636 22.692 325.18 22.188C324.724 21.684 324.172 21.432 323.524 21.432C322.66 21.432 321.868 21.768 321.148 22.44C320.452 23.112 320.056 24.072 319.96 25.32L319.78 24.06C320.212 22.692 320.944 21.66 321.976 20.964C323.032 20.244 324.256 19.884 325.648 19.884ZM343.598 19.884C345.35 19.884 346.886 20.208 348.206 20.856C349.526 21.504 350.558 22.548 351.302 23.988C352.046 25.428 352.418 27.336 352.418 29.712C352.418 32.088 352.046 33.996 351.302 35.436C350.558 36.852 349.526 37.884 348.206 38.532C346.886 39.18 345.35 39.504 343.598 39.504C341.894 39.504 340.37 39.18 339.026 38.532C337.706 37.884 336.662 36.852 335.894 35.436C335.15 33.996 334.778 32.088 334.778 29.712C334.778 27.336 335.15 25.428 335.894 23.988C336.662 22.548 337.706 21.504 339.026 20.856C340.37 20.208 341.894 19.884 343.598 19.884ZM343.598 20.604C342.638 20.604 341.834 21.324 341.186 22.764C340.538 24.18 340.214 26.496 340.214 29.712C340.214 32.928 340.538 35.244 341.186 36.66C341.834 38.076 342.638 38.784 343.598 38.784C344.582 38.784 345.386 38.076 346.01 36.66C346.658 35.244 346.982 32.928 346.982 29.712C346.982 26.496 346.658 24.18 346.01 22.764C345.386 21.324 344.582 20.604 343.598 20.604ZM361.973 14.484V20.388H366.221V21.108H361.973V35.652C361.973 36.372 362.105 36.888 362.369 37.2C362.633 37.488 363.029 37.632 363.557 37.632C363.989 37.632 364.421 37.476 364.853 37.164C365.285 36.828 365.669 36.264 366.005 35.472L366.617 35.796C366.233 36.876 365.645 37.764 364.853 38.46C364.085 39.156 363.029 39.504 361.685 39.504C360.893 39.504 360.197 39.396 359.597 39.18C358.997 38.988 358.493 38.688 358.085 38.28C357.557 37.752 357.209 37.104 357.041 36.336C356.873 35.544 356.789 34.524 356.789 33.276V21.108H353.765V20.388H356.789V15.636C357.797 15.636 358.721 15.552 359.561 15.384C360.425 15.192 361.229 14.892 361.973 14.484ZM374.665 10.812V35.652C374.665 36.66 374.833 37.344 375.169 37.704C375.529 38.064 376.129 38.244 376.969 38.244V39C376.513 38.976 375.829 38.952 374.917 38.928C374.005 38.88 373.081 38.856 372.145 38.856C371.209 38.856 370.261 38.88 369.301 38.928C368.365 38.952 367.657 38.976 367.177 39V38.244C368.017 38.244 368.605 38.064 368.941 37.704C369.301 37.344 369.481 36.66 369.481 35.652V15.132C369.481 14.052 369.313 13.26 368.977 12.756C368.665 12.228 368.065 11.964 367.177 11.964V11.208C367.945 11.28 368.689 11.316 369.409 11.316C370.393 11.316 371.329 11.28 372.217 11.208C373.105 11.112 373.921 10.98 374.665 10.812ZM383.181 11.1C384.189 11.1 384.981 11.352 385.557 11.856C386.157 12.336 386.457 13.008 386.457 13.872C386.457 14.736 386.157 15.42 385.557 15.924C384.981 16.404 384.189 16.644 383.181 16.644C382.173 16.644 381.369 16.404 380.769 15.924C380.193 15.42 379.905 14.736 379.905 13.872C379.905 13.008 380.193 12.336 380.769 11.856C381.369 11.352 382.173 11.1 383.181 11.1ZM385.989 19.992V35.652C385.989 36.66 386.157 37.344 386.493 37.704C386.853 38.064 387.453 38.244 388.293 38.244V39C387.861 38.976 387.189 38.952 386.277 38.928C385.365 38.88 384.441 38.856 383.505 38.856C382.569 38.856 381.621 38.88 380.661 38.928C379.701 38.952 378.981 38.976 378.501 39V38.244C379.341 38.244 379.929 38.064 380.265 37.704C380.625 37.344 380.805 36.66 380.805 35.652V24.312C380.805 23.232 380.637 22.44 380.301 21.936C379.989 21.408 379.389 21.144 378.501 21.144V20.388C379.269 20.46 380.013 20.496 380.733 20.496C381.741 20.496 382.677 20.46 383.541 20.388C384.429 20.292 385.245 20.16 385.989 19.992ZM396.841 45.768C395.353 45.768 394.021 45.636 392.845 45.372C391.693 45.132 390.781 44.748 390.109 44.22C389.461 43.716 389.137 43.092 389.137 42.348C389.137 41.604 389.473 40.932 390.145 40.332C390.817 39.756 391.813 39.3 393.133 38.964L393.457 39.54C393.001 39.9 392.665 40.284 392.449 40.692C392.257 41.124 392.161 41.568 392.161 42.024C392.161 43.032 392.617 43.8 393.529 44.328C394.465 44.88 395.725 45.156 397.309 45.156C398.389 45.156 399.349 45.012 400.189 44.724C401.053 44.436 401.725 44.004 402.205 43.428C402.709 42.852 402.961 42.144 402.961 41.304C402.961 40.584 402.697 39.972 402.169 39.468C401.641 38.988 400.585 38.748 399.001 38.748H396.769C395.785 38.748 394.921 38.64 394.177 38.424C393.457 38.208 392.893 37.872 392.485 37.416C392.077 36.936 391.873 36.336 391.873 35.616C391.873 34.608 392.269 33.72 393.061 32.952C393.853 32.184 395.029 31.464 396.589 30.792L396.949 31.08C396.493 31.368 396.061 31.68 395.653 32.016C395.269 32.328 395.077 32.736 395.077 33.24C395.077 34.008 395.557 34.392 396.517 34.392H400.441C401.761 34.392 402.937 34.548 403.969 34.86C405.025 35.172 405.853 35.688 406.453 36.408C407.077 37.104 407.389 38.016 407.389 39.144C407.389 40.32 407.005 41.412 406.237 42.42C405.493 43.428 404.341 44.232 402.781 44.832C401.221 45.456 399.241 45.768 396.841 45.768ZM397.201 31.332C395.833 31.332 394.609 31.128 393.529 30.72C392.449 30.312 391.597 29.688 390.973 28.848C390.349 28.008 390.037 26.928 390.037 25.608C390.037 24.288 390.349 23.208 390.973 22.368C391.597 21.504 392.449 20.88 393.529 20.496C394.609 20.088 395.833 19.884 397.201 19.884C398.569 19.884 399.793 20.088 400.873 20.496C401.953 20.88 402.805 21.504 403.429 22.368C404.053 23.208 404.365 24.288 404.365 25.608C404.365 26.928 404.053 28.008 403.429 28.848C402.805 29.688 401.953 30.312 400.873 30.72C399.793 31.128 398.569 31.332 397.201 31.332ZM397.201 30.684C397.849 30.684 398.353 30.324 398.713 29.604C399.073 28.86 399.253 27.528 399.253 25.608C399.253 23.688 399.073 22.368 398.713 21.648C398.353 20.904 397.849 20.532 397.201 20.532C396.577 20.532 396.073 20.904 395.689 21.648C395.329 22.368 395.149 23.688 395.149 25.608C395.149 27.528 395.329 28.86 395.689 29.604C396.073 30.324 396.577 30.684 397.201 30.684ZM402.817 22.98L402.097 22.728C402.457 21.792 403.033 21.012 403.825 20.388C404.641 19.764 405.517 19.452 406.453 19.452C407.221 19.452 407.797 19.668 408.181 20.1C408.589 20.508 408.793 21.048 408.793 21.72C408.793 22.44 408.601 22.98 408.217 23.34C407.833 23.676 407.401 23.844 406.921 23.844C406.513 23.844 406.129 23.7 405.769 23.412C405.433 23.124 405.241 22.692 405.193 22.116C405.145 21.516 405.349 20.748 405.805 19.812L406.057 20.028C405.145 20.364 404.461 20.76 404.005 21.216C403.549 21.648 403.153 22.236 402.817 22.98ZM417.063 10.848V23.232C417.663 21.984 418.467 21.12 419.475 20.64C420.507 20.136 421.659 19.884 422.931 19.884C423.963 19.884 424.791 20.016 425.415 20.28C426.039 20.52 426.531 20.856 426.891 21.288C427.299 21.744 427.587 22.332 427.755 23.052C427.947 23.772 428.043 24.744 428.043 25.968V35.652C428.043 36.66 428.211 37.344 428.547 37.704C428.907 38.064 429.507 38.244 430.347 38.244V39C429.891 38.976 429.195 38.952 428.259 38.928C427.347 38.88 426.459 38.856 425.595 38.856C424.659 38.856 423.747 38.88 422.859 38.928C421.995 38.952 421.347 38.976 420.915 39V38.244C421.635 38.244 422.139 38.064 422.427 37.704C422.715 37.344 422.859 36.66 422.859 35.652V24.456C422.859 23.856 422.799 23.34 422.679 22.908C422.559 22.452 422.331 22.104 421.995 21.864C421.683 21.6 421.227 21.468 420.627 21.468C419.979 21.468 419.379 21.648 418.827 22.008C418.299 22.344 417.867 22.824 417.531 23.448C417.219 24.072 417.063 24.792 417.063 25.608V35.652C417.063 36.66 417.207 37.344 417.495 37.704C417.783 38.064 418.287 38.244 419.007 38.244V39C418.575 38.976 417.939 38.952 417.099 38.928C416.259 38.88 415.407 38.856 414.543 38.856C413.607 38.856 412.659 38.88 411.699 38.928C410.763 38.952 410.055 38.976 409.575 39V38.244C410.415 38.244 411.003 38.064 411.339 37.704C411.699 37.344 411.879 36.66 411.879 35.652V15.168C411.879 14.088 411.711 13.296 411.375 12.792C411.063 12.264 410.463 12 409.575 12V11.244C410.343 11.316 411.087 11.352 411.807 11.352C412.791 11.352 413.727 11.316 414.615 11.244C415.503 11.148 416.319 11.016 417.063 10.848ZM438.965 14.484V20.388H443.213V21.108H438.965V35.652C438.965 36.372 439.097 36.888 439.361 37.2C439.625 37.488 440.021 37.632 440.549 37.632C440.981 37.632 441.413 37.476 441.845 37.164C442.277 36.828 442.661 36.264 442.997 35.472L443.609 35.796C443.225 36.876 442.637 37.764 441.845 38.46C441.077 39.156 440.021 39.504 438.677 39.504C437.885 39.504 437.189 39.396 436.589 39.18C435.989 38.988 435.485 38.688 435.077 38.28C434.549 37.752 434.201 37.104 434.033 36.336C433.865 35.544 433.781 34.524 433.781 33.276V21.108H430.757V20.388H433.781V15.636C434.789 15.636 435.713 15.552 436.553 15.384C437.417 15.192 438.221 14.892 438.965 14.484Z" fill="black"/>
</svg>
