<svg width="22" height="22" viewBox="0 0 22 22" fill="none" xmlns="http://www.w3.org/2000/svg">
<path d="M16.9 3.8C16.2 3.8 15.6 4.4 15.6 5.1C15.6 5.8 16.2 6.4 16.9 6.4C17.6 6.4 18.2 5.8 18.2 5.1C18.2 4.4 17.6 3.8 16.9 3.8ZM11 14.7C9 14.7 7.3 13.1 7.3 11C7.3 9 8.9 7.3 11 7.3C13 7.3 14.7 8.9 14.7 11C14.7 13 13 14.7 11 14.7ZM11 5.4C7.9 5.4 5.4 7.9 5.4 11C5.4 14.1 7.9 16.6 11 16.6C14.1 16.6 16.6 14.1 16.6 11C16.6 7.9 14.1 5.4 11 5.4ZM20 15.4C20 16.5 19.8 17.1 19.6 17.4C19.4 17.9 19.2 18.3 18.8 18.7C18.4 19.1 18 19.3 17.5 19.5C17.1 19.7 16.5 19.8 15.5 19.9C14.3 20 13.9 20 11 20C8.1 20 7.7 20 6.6 19.9C5.5 19.9 4.9 19.7 4.6 19.5C4.1 19.3 3.7 19.1 3.3 18.7C2.9 18.3 2.7 17.9 2.5 17.4C2.4 17 2.2 16.4 2.1 15.4C2 14.3 2 13.9 2 11C2 8.1 2 7.7 2.1 6.6C2.1 5.5 2.3 4.9 2.5 4.6C2.7 4.1 2.9 3.7 3.3 3.3C3.7 2.9 4.1 2.7 4.6 2.5C5 2.3 5.6 2.2 6.6 2.1C7.7 2 8.1 2 11 2C13.9 2 14.3 2 15.4 2.1C16.5 2.1 17.1 2.3 17.4 2.5C17.9 2.7 18.3 2.9 18.7 3.3C19.1 3.7 19.3 4.1 19.5 4.6C19.7 5 19.8 5.6 19.9 6.6C20 7.7 20 8.1 20 11V15.4ZM21.9 6.5C21.8 5.3 21.7 4.5 21.4 3.8C21.1 3.1 20.7 2.5 20.1 1.9C19.5 1.3 18.9 0.9 18.2 0.6C17.5 0.3 16.7 0.0999999 15.5 0.0999999C14.4 -9.68575e-08 14 0 11 0C8 0 7.6 -9.68575e-08 6.5 0.0999999C5.3 0.2 4.5 0.3 3.8 0.6C3.1 0.9 2.5 1.3 1.9 1.9C1.3 2.5 0.9 3.1 0.6 3.8C0.3 4.5 0.0999999 5.3 0.0999999 6.5C-9.68575e-08 7.6 0 8 0 11C0 14 -9.68575e-08 14.4 0.0999999 15.5C0.2 16.7 0.3 17.5 0.6 18.2C0.9 18.9 1.3 19.5 1.9 20.1C2.5 20.7 3.1 21.1 3.8 21.4C4.5 21.7 5.3 21.9 6.5 21.9C7.6 22 8 22 11 22C14 22 14.4 22 15.5 21.9C16.7 21.8 17.5 21.7 18.2 21.4C18.9 21.1 19.5 20.7 20.1 20.1C20.7 19.5 21.1 18.9 21.4 18.2C21.7 17.5 21.9 16.7 21.9 15.5C22 14.4 22 14 22 11C22 8 22 7.6 21.9 6.5Z" fill="white"/>
</svg>
