<svg width="240" height="48" viewBox="0 0 240 48" fill="none" xmlns="http://www.w3.org/2000/svg">
<path d="M87.6392 7.19437C87.975 7.19437 88.2629 6.90651 88.2629 6.57067V0.861334C88.2629 0.525491 87.975 0.237626 87.6392 0.237626H69.4077C69.0718 0.237626 68.784 0.525491 68.784 0.861334V6.57067C68.784 6.90651 69.0718 7.19437 69.4077 7.19437H74.6852V28.4005C74.6852 28.7363 74.9731 29.0242 75.3089 29.0242H81.6899C82.0258 29.0242 82.3136 28.7363 82.3136 28.4005V7.19437H87.6392ZM109.613 7.19437C109.949 7.19437 110.237 6.90651 110.237 6.57067V0.861334C110.237 0.525491 109.949 0.237626 109.613 0.237626H91.3814C91.0456 0.237626 90.7577 0.525491 90.7577 0.861334V6.57067C90.7577 6.90651 91.0456 7.19437 91.3814 7.19437H96.6589V28.4005C96.6589 28.7363 96.9468 29.0242 97.2826 29.0242H103.712C104.047 29.0242 104.335 28.7363 104.335 28.4005V7.19437H109.613ZM217.898 0.237626H211.469C211.133 0.237626 210.846 0.525491 210.798 0.861334V17.1257C210.798 19.9564 208.495 22.2114 205.712 22.2114H205.472C202.737 22.0194 200.626 19.7165 200.674 16.9818V0.861334C200.674 0.525491 200.386 0.237626 200.051 0.237626H193.67C193.334 0.237626 193.046 0.525491 193.046 0.861334V16.502C193.046 23.4588 198.515 29.312 205.52 29.5039C212.573 29.6479 218.426 24.0345 218.522 16.9818V0.861334C218.522 0.525491 218.282 0.237626 217.898 0.237626ZM239.344 22.0674H231.092V0.861334C231.092 0.525491 230.804 0.237626 230.468 0.237626H224.039C223.704 0.237626 223.416 0.525491 223.416 0.861334V27.1051C223.416 28.1606 224.279 29.0242 225.335 29.0242H239.344C239.68 29.0242 239.968 28.7363 239.968 28.4005V22.6911C239.968 22.3553 239.68 22.0674 239.344 22.0674ZM162.628 18.709C167.426 16.2142 169.297 10.3129 166.802 5.51516C165.123 2.30066 161.812 0.285603 158.214 0.237626H146.364C145.932 0.237626 145.548 0.573469 145.548 1.00527V28.4005C145.548 28.7363 145.836 29.0242 146.172 29.0242H152.601C152.937 29.0242 153.224 28.7363 153.224 28.4005V19.7645H153.992L159.989 28.4964C160.277 28.8802 160.709 29.1201 161.189 29.1201H168.433C168.865 29.1201 169.201 28.7843 169.153 28.3525C169.153 28.2085 169.105 28.0646 169.009 27.9207L162.628 18.709ZM160.949 9.97707C160.997 11.5124 159.749 12.7598 158.262 12.7598H153.32V7.19437H158.262C159.749 7.24235 160.949 8.48977 160.949 9.97707ZM127.94 0.0936929C120.648 -0.24215 114.219 4.89145 112.875 12.0401C111.196 21.2518 118.153 29.2641 127.317 29.2641C130.483 29.2641 133.554 28.2565 136.097 26.3854C136.384 26.1935 136.432 25.8097 136.288 25.5698C136.24 25.5218 136.24 25.4738 136.192 25.4258L131.97 21.5876C131.826 21.4437 131.539 21.3957 131.347 21.5397C130.195 22.2114 128.9 22.5952 127.556 22.5952C124.198 22.5952 121.271 20.3882 120.6 17.6055H141.182C141.614 17.6055 141.95 17.2697 141.95 16.8379V14.439C141.71 7.67415 136.72 0.429536 127.94 0.0936929ZM120.792 11.4644C122.087 8.82561 124.486 6.90651 127.652 6.90651C130.579 6.81055 133.218 8.68168 134.033 11.4644H120.792ZM30.8817 0.669424L16.3445 13.6234L1.80727 0.669424C1.37548 0.285603 0.703791 0.285603 0.31997 0.717401C0.12806 0.957289 0.0321045 1.19718 0.0321045 1.43706V28.1606C0.0321045 28.6403 0.415925 29.0242 0.895701 29.0242H6.84492C7.3247 29.0242 7.70852 28.6403 7.70852 28.1606V16.1662L15.3849 23.027C15.9127 23.5067 16.7283 23.5067 17.2561 23.027L24.9325 16.2142V28.2085C24.9325 28.6883 25.3163 29.0721 25.7961 29.0721H31.7453C32.2251 29.0721 32.6089 28.6883 32.6089 28.2085V1.43706C32.6089 0.861334 32.1291 0.381558 31.5534 0.381558C31.3135 0.381558 31.0736 0.477513 30.8817 0.669424ZM65.3776 28.3525V1.10122C65.3776 0.621446 64.9937 0.237626 64.514 0.237626H58.7087C58.2289 0.237626 57.8451 0.621446 57.8451 1.10122V2.44459C55.6861 1.19718 53.2392 0.525491 50.7444 0.525491C42.8281 0.669424 36.543 7.19437 36.687 15.1586C36.8309 22.883 43.068 29.1201 50.7924 29.2641C53.2872 29.2641 55.7341 28.5924 57.8931 27.345V28.4005C57.8931 28.8802 58.2769 29.2641 58.7567 29.2641H64.5619C64.9937 29.2161 65.3776 28.8323 65.3776 28.3525ZM50.9843 21.5397C47.29 21.5397 44.3154 18.5651 44.3154 14.8708C44.3154 11.1765 47.29 8.2019 50.9843 8.2019C54.6786 8.2019 57.6532 11.1765 57.6532 14.8708C57.6532 18.5651 54.6786 21.5397 50.9843 21.5397ZM187.528 19.1408C187.864 19.1408 188.152 18.8529 188.152 18.5171V12.7598C188.152 12.4239 187.864 12.1361 187.528 12.1361H180.188V7.19437H188.392C188.728 7.19437 189.016 6.90651 189.016 6.57067V0.861334C189.016 0.525491 188.728 0.237626 188.392 0.237626H173.327C172.895 0.237626 172.511 0.573469 172.511 1.00527V28.2565C172.511 28.6883 172.847 29.0721 173.327 29.0721H179.42C179.852 29.0721 180.236 28.7363 180.236 28.2565V19.1408H187.528ZM66.3371 42.6978L66.3851 42.6498C66.529 42.4579 66.673 42.218 66.7689 41.9781C66.8649 41.7382 66.9128 41.4983 66.9128 41.2105C66.9128 40.6347 66.7209 40.107 66.3851 39.6752C66.2412 39.4833 66.0492 39.2914 65.8573 39.0995C65.4255 38.8116 64.8978 38.6197 64.37 38.6197H60.8677V47.4476H64.6099C64.8978 47.4476 65.1856 47.3996 65.4255 47.3036C66.577 46.9678 67.3446 45.9123 67.3446 44.7608C67.3446 44.1851 67.1527 43.6093 66.8169 43.1776C66.673 42.9856 66.481 42.8417 66.3371 42.6978ZM62.5469 40.2029H64.37C64.466 40.2029 64.6099 40.2509 64.7059 40.2989C64.8018 40.3469 64.8978 40.4428 64.9937 40.5388C65.1377 40.7307 65.2336 40.9706 65.2336 41.2105C65.2336 41.4024 65.1377 41.5943 65.0417 41.7382L64.8018 41.9781C64.7059 42.0261 64.6099 42.0741 64.514 42.0741H62.5949L62.5469 40.2029ZM65.2816 45.6244C65.0897 45.8163 64.8498 45.9123 64.5619 45.9123H62.5469V43.6573H64.514C64.6579 43.6573 64.8018 43.6573 64.9458 43.7053C65.0897 43.7533 65.1856 43.8492 65.2816 43.9452C65.3776 44.0411 65.4735 44.1851 65.5215 44.329C65.7134 44.7608 65.5695 45.2886 65.2816 45.6244ZM90.9016 43.2735C91.0935 43.0336 91.2375 42.7458 91.3334 42.4579C91.4294 42.17 91.4774 41.8822 91.4774 41.5943C91.4774 41.2584 91.4294 40.9226 91.3334 40.6347C91.2375 40.3469 91.0935 40.059 90.9016 39.8191C90.7097 39.5792 90.5178 39.3393 90.2299 39.1954C89.9901 39.0035 89.7022 38.8596 89.4143 38.8116C89.1265 38.7156 88.8386 38.6677 88.5027 38.6677H84.4726V47.4955H86.1518V44.5209H88.2629L89.7022 47.4955H91.5733L89.9421 44.1371C90.3259 43.8972 90.6617 43.6093 90.9016 43.2735ZM89.5583 42.3619C89.4143 42.5059 89.2704 42.6498 89.0785 42.7458C88.9345 42.8417 88.7426 42.8897 88.5507 42.8897H86.1998V40.2029H88.5507C88.7426 40.2029 88.8866 40.2509 89.0785 40.3469C89.2704 40.4428 89.4143 40.5388 89.5103 40.6827C89.7502 40.9226 89.8461 41.2584 89.8461 41.5943C89.7981 41.8822 89.7022 42.17 89.5583 42.3619ZM111.148 38.6677L108.461 47.4476H110.189L110.62 46.0562H114.219L114.651 47.4476H116.378L113.691 38.6197H111.148V38.6677ZM111.052 44.5209L112.348 40.2029L113.691 44.5209H111.052ZM138.831 44.5209L134.993 38.6677H133.314V47.4476H134.993V41.5943L138.831 47.4476H140.51V38.6677H138.831V44.5209ZM164.163 39.8191C163.828 39.4353 163.396 39.1474 162.916 38.9555C162.388 38.7636 161.812 38.6677 161.237 38.6677H158.118V47.4955H161.237C161.812 47.4955 162.388 47.3996 162.916 47.2077C163.444 47.0158 163.876 46.7279 164.259 46.2961C164.643 45.8643 164.931 45.3845 165.123 44.8568C165.315 44.281 165.411 43.7053 165.411 43.0816C165.411 42.4579 165.315 41.8822 165.123 41.3064C164.835 40.7307 164.547 40.2509 164.163 39.8191ZM163.396 44.2331C163.3 44.5689 163.108 44.9047 162.868 45.1926C162.436 45.6244 161.812 45.9123 161.189 45.8643H159.797V40.2509H161.237C161.573 40.2509 161.908 40.3469 162.196 40.4428C162.484 40.5388 162.724 40.7307 162.916 40.9706C163.396 41.5943 163.588 42.3619 163.588 43.0816C163.588 43.4654 163.54 43.8972 163.396 44.2331ZM188.584 43.1776C188.392 42.9856 188.152 42.8417 187.912 42.6978C187.624 42.5538 187.289 42.4099 186.953 42.314L185.417 41.8822C185.034 41.7862 184.698 41.6423 184.41 41.4024C184.314 41.3064 184.218 41.1625 184.218 40.9706C184.218 40.8266 184.266 40.6827 184.314 40.5868C184.41 40.4428 184.506 40.3469 184.65 40.2509C184.938 40.059 185.274 40.011 185.657 40.011C186.041 40.011 186.425 40.107 186.761 40.3469C186.953 40.4428 187.097 40.5868 187.241 40.7307C187.385 40.9226 187.48 41.1145 187.576 41.3064L189.256 40.8746C189.112 40.4428 188.872 40.059 188.584 39.6752C188.296 39.3393 187.96 39.0515 187.576 38.8596C187.001 38.5717 186.377 38.4278 185.705 38.4278C185.369 38.4278 185.082 38.4757 184.746 38.5237C184.458 38.5717 184.122 38.6677 183.834 38.8116C183.402 39.0035 183.067 39.2914 182.827 39.6752C182.539 40.059 182.443 40.4908 182.443 40.9706C182.443 41.3064 182.491 41.6423 182.635 41.9301C182.779 42.218 182.971 42.5059 183.21 42.6978C183.69 43.0816 184.266 43.3695 184.89 43.5134L186.521 43.9932C186.809 44.0891 187.097 44.1851 187.289 44.377C187.48 44.5209 187.576 44.7608 187.576 45.0007C187.576 45.2886 187.433 45.5764 187.241 45.7204C187.049 45.8643 186.857 45.9602 186.617 46.0082C186.377 46.0562 186.137 46.1042 185.849 46.1042C185.513 46.1042 185.226 46.0562 184.938 45.9123C184.65 45.8163 184.41 45.6244 184.218 45.3845C183.978 45.0487 183.834 44.7128 183.786 44.281L182.107 44.7608C182.251 45.3845 182.491 45.9602 182.923 46.488C183.258 46.9198 183.69 47.2077 184.17 47.3996C184.698 47.5915 185.274 47.6874 185.849 47.6874C186.281 47.6874 186.761 47.6395 187.193 47.5435C187.576 47.4476 187.912 47.3036 188.248 47.1117C188.584 46.8718 188.872 46.584 189.064 46.2001C189.256 45.8643 189.352 45.4805 189.352 45.0487C189.352 44.7128 189.304 44.377 189.16 44.0411C189.112 43.7533 188.872 43.4174 188.584 43.1776Z" fill="#231F20"/>
</svg>
