<svg width="460" height="92" viewBox="0 0 460 92" fill="none" xmlns="http://www.w3.org/2000/svg">
<path d="M167.937 13.6414C168.581 13.6414 169.133 13.0896 169.133 12.4458V1.50136C169.133 0.857574 168.581 0.305753 167.937 0.305753H132.989C132.345 0.305753 131.793 0.857574 131.793 1.50136V12.4458C131.793 13.0896 132.345 13.6414 132.989 13.6414H143.106V54.2922C143.106 54.936 143.657 55.4878 144.301 55.4878H156.533C157.177 55.4878 157.729 54.936 157.729 54.2922V13.6414H167.937ZM210.06 13.6414C210.704 13.6414 211.255 13.0896 211.255 12.4458V1.50136C211.255 0.857574 210.704 0.305753 210.06 0.305753H175.111C174.467 0.305753 173.916 0.857574 173.916 1.50136V12.4458C173.916 13.0896 174.467 13.6414 175.111 13.6414H185.228V54.2922C185.228 54.936 185.78 55.4878 186.423 55.4878H198.747C199.391 55.4878 199.943 54.936 199.943 54.2922V13.6414H210.06ZM417.636 0.305753H405.312C404.669 0.305753 404.117 0.857574 404.025 1.50136V32.6792C404.025 38.1055 399.61 42.4281 394.276 42.4281H393.816C388.574 42.0602 384.527 37.6456 384.619 32.4033V1.50136C384.619 0.857574 384.067 0.305753 383.423 0.305753H371.191C370.548 0.305753 369.996 0.857574 369.996 1.50136V31.4836C369.996 44.8193 380.48 56.0397 393.908 56.4075C407.428 56.6834 418.648 45.9229 418.832 32.4033V1.50136C418.832 0.857574 418.372 0.305753 417.636 0.305753ZM458.747 42.1522H442.928V1.50136C442.928 0.857574 442.376 0.305753 441.733 0.305753H429.409C428.765 0.305753 428.213 0.857574 428.213 1.50136V51.809C428.213 53.8324 429.868 55.4878 431.892 55.4878H458.747C459.391 55.4878 459.943 54.936 459.943 54.2922V43.3478C459.943 42.704 459.391 42.1522 458.747 42.1522ZM311.687 35.7143C320.884 30.9318 324.471 19.6195 319.688 10.4225C316.469 4.26047 310.123 0.397723 303.226 0.305753H280.509C279.681 0.305753 278.945 0.949544 278.945 1.77728V54.2922C278.945 54.936 279.497 55.4878 280.141 55.4878H292.465C293.109 55.4878 293.661 54.936 293.661 54.2922V37.7376H295.132L306.628 54.4762C307.18 55.2119 308.008 55.6718 308.928 55.6718H322.815C323.643 55.6718 324.287 55.028 324.195 54.2003C324.195 53.9243 324.103 53.6484 323.919 53.3725L311.687 35.7143ZM308.468 18.9757C308.56 21.9187 306.169 24.31 303.317 24.31H293.845V13.6414H303.317C306.169 13.7334 308.468 16.1246 308.468 18.9757ZM245.192 0.0298427C231.213 -0.613948 218.889 9.22686 216.314 22.9304C213.095 40.5887 226.43 55.9477 243.997 55.9477C250.067 55.9477 255.953 54.0163 260.827 50.4295C261.379 50.0616 261.471 49.3258 261.195 48.866C261.103 48.774 261.103 48.682 261.011 48.5901L252.918 41.2325C252.642 40.9566 252.09 40.8646 251.722 41.1405C249.515 42.4281 247.032 43.1638 244.457 43.1638C238.019 43.1638 232.409 38.9332 231.121 33.5989H270.576C271.404 33.5989 272.048 32.9552 272.048 32.1274V27.5289C271.588 14.5611 262.023 0.673634 245.192 0.0298427ZM231.489 21.8268C233.972 16.7684 238.571 13.0896 244.641 13.0896C250.251 12.9057 255.309 16.4925 256.873 21.8268H231.489ZM59.1368 1.13348L31.2698 25.9654L3.40289 1.13348C2.57516 0.397723 1.28758 0.397723 0.551821 1.22545C0.18394 1.68531 0 2.14516 0 2.60501V53.8324C0 54.7521 0.735761 55.4878 1.65546 55.4878H13.0598C13.9795 55.4878 14.7152 54.7521 14.7152 53.8324V30.8398L29.4304 43.9916C30.4421 44.9113 32.0056 44.9113 33.0173 43.9916L47.7325 30.9318V53.9243C47.7325 54.844 48.4683 55.5798 49.388 55.5798H60.7923C61.712 55.5798 62.4477 54.844 62.4477 53.9243V2.60501C62.4477 1.50136 61.528 0.581664 60.4244 0.581664C59.9645 0.581664 59.5047 0.765604 59.1368 1.13348ZM125.263 54.2003V1.96122C125.263 1.04151 124.528 0.305753 123.608 0.305753H112.479C111.56 0.305753 110.824 1.04151 110.824 1.96122V4.53638C106.685 2.14516 101.995 0.857574 97.2124 0.857574C82.0374 1.13348 69.9893 13.6414 70.2652 28.9085C70.5411 43.7157 82.4972 55.6718 97.3044 55.9477C102.087 55.9477 106.777 54.6601 110.916 52.2689V54.2922C110.916 55.2119 111.652 55.9477 112.571 55.9477H123.7C124.528 55.8557 125.263 55.12 125.263 54.2003ZM97.6723 41.1405C90.5906 41.1405 84.8884 35.4383 84.8884 28.3566C84.8884 21.2749 90.5906 15.5728 97.6723 15.5728C104.754 15.5728 110.456 21.2749 110.456 28.3566C110.456 35.4383 104.754 41.1405 97.6723 41.1405ZM359.419 36.542C360.063 36.542 360.615 35.9902 360.615 35.3464V24.31C360.615 23.6662 360.063 23.1143 359.419 23.1143H345.348V13.6414H361.075C361.719 13.6414 362.27 13.0896 362.27 12.4458V1.50136C362.27 0.857574 361.719 0.305753 361.075 0.305753H332.196C331.368 0.305753 330.633 0.949544 330.633 1.77728V54.0163C330.633 54.844 331.276 55.5798 332.196 55.5798H343.876C344.704 55.5798 345.44 54.936 345.44 54.0163V36.542H359.419ZM127.103 81.6993L127.195 81.6073C127.471 81.2395 127.747 80.7796 127.93 80.3198C128.114 79.8599 128.206 79.4001 128.206 78.8482C128.206 77.7446 127.838 76.7329 127.195 75.9052C126.919 75.5373 126.551 75.1694 126.183 74.8016C125.355 74.2497 124.344 73.8819 123.332 73.8819H116.618V90.8044H123.792C124.344 90.8044 124.895 90.7124 125.355 90.5285C127.563 89.8847 129.034 87.8613 129.034 85.654C129.034 84.5504 128.666 83.4468 128.022 82.619C127.747 82.2511 127.379 81.9752 127.103 81.6993ZM119.837 76.9169H123.332C123.516 76.9169 123.792 77.0088 123.976 77.1008C124.16 77.1928 124.344 77.3767 124.528 77.5607C124.803 77.9285 124.987 78.3884 124.987 78.8482C124.987 79.2161 124.803 79.584 124.62 79.8599L124.16 80.3198C123.976 80.4117 123.792 80.5037 123.608 80.5037H119.929L119.837 76.9169ZM125.079 87.3095C124.712 87.6774 124.252 87.8613 123.7 87.8613H119.837V83.5387H123.608C123.884 83.5387 124.16 83.5387 124.436 83.6307C124.712 83.7227 124.895 83.9066 125.079 84.0905C125.263 84.2745 125.447 84.5504 125.539 84.8263C125.907 85.654 125.631 86.6657 125.079 87.3095ZM174.191 82.803C174.559 82.3431 174.835 81.7913 175.019 81.2395C175.203 80.6877 175.295 80.1358 175.295 79.584C175.295 78.9402 175.203 78.2964 175.019 77.7446C174.835 77.1928 174.559 76.641 174.191 76.1811C173.824 75.7213 173.456 75.2614 172.904 74.9855C172.444 74.6176 171.892 74.3417 171.34 74.2497C170.789 74.0658 170.237 73.9738 169.593 73.9738H161.867V90.8963H165.086V85.1942H169.133L171.892 90.8963H175.479L172.352 84.4584C173.088 83.9986 173.732 83.4468 174.191 82.803ZM171.616 81.0555C171.34 81.3314 171.064 81.6074 170.697 81.7913C170.421 81.9752 170.053 82.0672 169.685 82.0672H165.178V76.9169H169.685C170.053 76.9169 170.329 77.0088 170.697 77.1928C171.064 77.3767 171.34 77.5607 171.524 77.8366C171.984 78.2964 172.168 78.9402 172.168 79.584C172.076 80.1358 171.892 80.6876 171.616 81.0555ZM213.003 73.9738L207.853 90.8044H211.163L211.991 88.1372H218.889L219.717 90.8044H223.028L217.877 73.8819H213.003V73.9738ZM212.819 85.1942L215.302 76.9169L217.877 85.1942H212.819ZM266.07 85.1942L258.712 73.9738H255.493V90.8044H258.712V79.584L266.07 90.8044H269.289V73.9738H266.07V85.1942ZM314.63 76.1811C313.986 75.4454 313.158 74.8935 312.239 74.5257C311.227 74.1578 310.123 73.9738 309.02 73.9738H303.042V90.8963H309.02C310.123 90.8963 311.227 90.7124 312.239 90.3445C313.25 89.9766 314.078 89.4248 314.814 88.5971C315.55 87.7694 316.101 86.8497 316.469 85.838C316.837 84.7343 317.021 83.6307 317.021 82.4351C317.021 81.2395 316.837 80.1358 316.469 79.0322C315.917 77.9285 315.366 77.0088 314.63 76.1811ZM313.158 84.6424C312.974 85.2862 312.606 85.9299 312.147 86.4818C311.319 87.3095 310.123 87.8613 308.928 87.7694H306.261V77.0088H309.02C309.663 77.0088 310.307 77.1928 310.859 77.3767C311.411 77.5607 311.871 77.9285 312.239 78.3884C313.158 79.584 313.526 81.0555 313.526 82.4351C313.526 83.1708 313.434 83.9986 313.158 84.6424ZM361.443 82.619C361.075 82.2511 360.615 81.9752 360.155 81.6993C359.603 81.4234 358.959 81.1475 358.316 80.9636L355.373 80.1358C354.637 79.9519 353.993 79.676 353.441 79.2161C353.257 79.0322 353.073 78.7563 353.073 78.3884C353.073 78.1125 353.165 77.8366 353.257 77.6526C353.441 77.3767 353.625 77.1928 353.901 77.0088C354.453 76.641 355.097 76.549 355.832 76.549C356.568 76.549 357.304 76.7329 357.948 77.1928C358.316 77.3767 358.592 77.6526 358.867 77.9285C359.143 78.2964 359.327 78.6643 359.511 79.0322L362.73 78.2045C362.454 77.3767 361.994 76.641 361.443 75.9052C360.891 75.2614 360.247 74.7096 359.511 74.3417C358.408 73.7899 357.212 73.514 355.924 73.514C355.281 73.514 354.729 73.6059 354.085 73.6979C353.533 73.7899 352.889 73.9738 352.338 74.2497C351.51 74.6176 350.866 75.1694 350.406 75.9052C349.854 76.641 349.67 77.4687 349.67 78.3884C349.67 79.0322 349.762 79.676 350.038 80.2278C350.314 80.7796 350.682 81.3314 351.142 81.6993C352.062 82.4351 353.165 82.9869 354.361 83.2628L357.488 84.1825C358.04 84.3665 358.592 84.5504 358.959 84.9183C359.327 85.1942 359.511 85.654 359.511 86.1139C359.511 86.6657 359.235 87.2175 358.867 87.4934C358.5 87.7693 358.132 87.9533 357.672 88.0453C357.212 88.1372 356.752 88.2292 356.2 88.2292C355.557 88.2292 355.005 88.1372 354.453 87.8613C353.901 87.6774 353.441 87.3095 353.073 86.8496C352.613 86.2059 352.338 85.5621 352.246 84.7343L349.027 85.654C349.303 86.8496 349.762 87.9533 350.59 88.965C351.234 89.7927 352.062 90.3445 352.981 90.7124C353.993 91.0803 355.097 91.2642 356.2 91.2642C357.028 91.2642 357.948 91.1722 358.775 90.9883C359.511 90.8044 360.155 90.5285 360.799 90.1606C361.443 89.7007 361.994 89.1489 362.362 88.4131C362.73 87.7693 362.914 87.0336 362.914 86.2059C362.914 85.5621 362.822 84.9183 362.546 84.2745C362.454 83.7227 361.994 83.0789 361.443 82.619Z" fill="#231F20"/>
</svg>
