<svg width="20" height="16" viewBox="0 0 20 16" fill="none" xmlns="http://www.w3.org/2000/svg">
<path d="M19.2 1.8C18.5 2.1 17.7 2.3 16.9 2.4C17.7 1.9 18.3 1.1 18.6 0.2C17.8 0.7 17 1 16.1 1.2C15.4 0.4 14.3 0 13.2 0C11 0 9.2 1.8 9.2 4C9.2 4.3 9.2 4.6 9.3 4.9C6 4.7 3.1 3.2 1.1 0.8C0.799999 1.4 0.599999 2.1 0.599999 2.8C0.599999 4.2 1.3 5.4 2.4 6.1C1.8 6.1 1.1 5.9 0.599999 5.6C0.599999 7.5 2 9.1 3.8 9.5C3.5 9.6 3.1 9.6 2.8 9.6C2.5 9.6 2.3 9.6 2.1 9.5C2.6 11.1 4.1 12.2 5.8 12.2C4.4 13.3 2.7 13.9 0.9 13.9C0.6 13.9 0.3 13.9 0 13.8C1.8 14.9 3.8 15.6 6.1 15.6C13.4 15.6 17.4 9.6 17.4 4.3V3.8C18 3.3 18.6 2.6 19.2 1.8Z" fill="white"/>
</svg>
